<svg fill="#0057b9" xmlns="http://www.w3.org/2000/svg" width="111.811" height="122.88" viewBox="0 0 111.811 122.88" xml:space="preserve"><path fill-rule="evenodd" clip-rule="evenodd" d="M55.713 0c20.848 13.215 39.682 19.467 55.846 17.989 2.823 57.098-18.263 90.818-55.63 104.891C19.844 109.708-1.5 77.439.083 17.123c18.975.993 37.591-3.109 55.63-17.123m.45 19.543c14.217 9.011 27.061 13.274 38.083 12.268 1.925 38.936-12.454 61.93-37.935 71.526l-.479-.18V19.796zm-.428-12.488c18.454 11.697 35.126 17.232 49.434 15.923 2.498 50.541-16.166 80.39-49.241 92.846C23.986 104.165 5.091 75.603 6.493 22.211c16.797.88 33.275-2.751 49.242-15.156"/></svg>